HIERARCHY
ROOT Hips
{
	OFFSET -3.958830 18.904000 13.208200
	CHANNELS 6 Xposition Yposition Zposition Zrotation Yrotation Xrotation 
	JOINT LHipJoint
	{
		OFFSET 0.000000 0.000000 0.000000
		CHANNELS 3 Zrotation Yrotation Xrotation
		JOINT LeftUpLeg
		{
			OFFSET 1.800000 -1.400000 0.085000
			CHANNELS 3 Zrotation Yrotation Xrotation
			JOINT LeftLeg
			{
				OFFSET 2.215000 -6.000000 0.000000
				CHANNELS 3 Zrotation Yrotation Xrotation
				JOINT LeftFoot
				{
					OFFSET 2.500000 -6.900000 0.000000
					CHANNELS 3 Zrotation Yrotation Xrotation
					JOINT LeftToeBase
					{
						OFFSET 0.200000 -0.500000 1.950000
						CHANNELS 3 Zrotation Yrotation Xrotation
						End Site
						{
							OFFSET 0.000000 0.000000 0.000000
						}
					}
				}
			}
		}
	}
	JOINT RHipJoint
	{
		OFFSET 0.000000 0.000000 0.000000
		CHANNELS 3 Zrotation Yrotation Xrotation
		JOINT RightUpLeg
		{
			OFFSET -1.800000 -1.400000 0.085000
			CHANNELS 3 Zrotation Yrotation Xrotation
			JOINT RightLeg
			{
				OFFSET -2.215000 -6.000000 0.000000
				CHANNELS 3 Zrotation Yrotation Xrotation
				JOINT RightFoot
				{
					OFFSET -2.500000 -6.900000 0.000000
					CHANNELS 3 Zrotation Yrotation Xrotation
					JOINT RightToeBase
					{
						OFFSET -0.200000 -0.500000 1.950000
						CHANNELS 3 Zrotation Yrotation Xrotation
						End Site
						{
							OFFSET 0.000000 0.000000 0.000000
						}
					}
				}
			}
		}
	}
	JOINT LowerBack
	{
		OFFSET 0.000000 0.000000 0.000000
		CHANNELS 3 Zrotation Yrotation Xrotation
		JOINT Spine
		{
			OFFSET -0.087000 1.940000 -0.288900
			CHANNELS 3 Zrotation Yrotation Xrotation
			JOINT Spine1
			{
				OFFSET 0.000000 1.950000 0.060000
				CHANNELS 3 Zrotation Yrotation Xrotation
				JOINT Neck
				{
					OFFSET 0.000000 0.000000 0.000000
					CHANNELS 3 Zrotation Yrotation Xrotation
					JOINT Neck1
					{
						OFFSET 0.000000 1.600000 0.340000
						CHANNELS 3 Zrotation Yrotation Xrotation
						JOINT Head
						{
							OFFSET 0.000000 1.667000 -0.240000
							CHANNELS 3 Zrotation Yrotation Xrotation
							End Site
							{
								OFFSET 0.000000 0.000000 0.000000
							}
						}
					}
				}
				JOINT LeftShoulder
				{
					OFFSET 0.000000 0.000000 0.000000
					CHANNELS 3 Zrotation Yrotation Xrotation
					JOINT LeftArm
					{
						OFFSET 2.700000 1.550000 -0.730000
						CHANNELS 3 Zrotation Yrotation Xrotation
						JOINT LeftForeArm
						{
							OFFSET 5.450000 0.000000 0.000000
							CHANNELS 3 Zrotation Yrotation Xrotation
							JOINT LeftHand
							{
								OFFSET 3.450000 0.000000 0.000000
								CHANNELS 3 Zrotation Yrotation Xrotation
								JOINT LeftHandIndex1
								{
									OFFSET 0.750000 0.000000 0.000000
									CHANNELS 3 Zrotation Yrotation Xrotation
									End Site
									{
										OFFSET 0.000000 0.000000 0.000000
									}
								}
							}
						}
					}
				}
				JOINT RightShoulder
				{
					OFFSET 0.000000 0.000000 0.000000
					CHANNELS 3 Zrotation Yrotation Xrotation
					JOINT RightArm
					{
						OFFSET -2.700000 1.550000 -0.730000
						CHANNELS 3 Zrotation Yrotation Xrotation
						JOINT RightForeArm
						{
							OFFSET -5.450000 0.000000 0.000000
							CHANNELS 3 Zrotation Yrotation Xrotation
							JOINT RightHand
							{
								OFFSET -3.450000 0.000000 0.000000
								CHANNELS 3 Zrotation Yrotation Xrotation
								JOINT RightHandIndex1
								{
									OFFSET -0.750000 0.000000 0.000000
									CHANNELS 3 Zrotation Yrotation Xrotation
									End Site
									{
										OFFSET 0.000000 0.000000 0.000000
									}
								}
							}
						}
					}
				}
			}
		}
	}
}
MOTION
Frames: 12
Frame Time: 0.016667
1.289340 16.165560 -1.458950 1.593359 17.119233 9.723304 -14.887343 12.324125 2.425306 8.308195 -2.542307 -19.555942 -7.483668 6.571829 17.976488 -1.166865 5.142632 3.189856 0.529830 -0.154320 0.285530 18.714185 -10.866382 3.136355 -1.005675 6.234406 -28.039853 8.063271 -8.077408 32.534649 -0.059453 -5.430763 2.864888 0.433620 0.915940 0.217760 -4.854403 0.412888 -6.620412 20.399573 -2.439799 1.520631 -12.887262 -0.810418 7.522209 3.587673 -3.780298 -4.707370 -4.484456 -2.801575 16.812482 -5.976670 -4.589980 0.906860 -24.166211 1.622389 -1.952321 -45.304293 1.970910 -5.300051 -17.991052 -14.770380 -0.584839 -4.466378 2.959828 0.206610 0.789070 -0.817140 0.422140 16.363306 -1.020160 4.533001 45.245290 -9.117252 -8.944962 77.366541 42.488433 22.551941 1.354569 -2.423664 -0.633230 0.484290 0.080040 -0.399230 
1.354870 16.113520 -1.462360 2.438306 19.073084 9.362329 -14.902219 12.375099 2.424456 7.036496 -2.577028 -19.067633 -7.227300 6.489810 18.283064 -1.166822 5.045476 3.203720 0.553620 -0.140360 0.354760 18.701550 -10.761229 3.255450 -0.902003 6.612640 -30.089198 7.255300 -7.674544 32.537856 -0.061255 -5.185201 2.930390 0.411260 0.812920 0.201240 -4.858000 0.213639 -6.724394 20.759422 -3.219637 2.554914 -13.168218 -1.171763 8.376785 3.576750 -3.689055 -5.472678 -4.624578 -3.470996 17.795100 -6.702160 -4.555720 -0.239630 -23.773444 0.035951 -1.021301 -43.187336 3.315533 -6.115541 -22.133546 -17.830111 0.209064 -4.336896 2.986046 0.288140 0.714160 -0.740420 0.396460 16.016482 0.455038 5.225825 43.245393 -9.406490 -8.574997 88.195937 44.729941 29.364988 1.389997 -2.430825 -0.621520 0.467680 0.050150 -0.436460 
1.417330 16.040270 -1.459940 3.249642 20.936824 8.831068 -14.912472 12.411798 2.433936 6.144223 -2.567508 -18.448954 -7.382577 6.657152 19.051521 -1.153167 5.073192 3.146023 0.596730 -0.113350 0.441300 18.693487 -10.655051 3.384282 -0.578369 7.030444 -32.090924 6.019612 -7.056196 32.310204 -0.073002 -4.857238 3.006928 0.389200 0.681760 0.206600 -4.877438 0.048214 -6.856217 21.092103 -4.006382 3.938267 -13.456323 -1.560405 9.094842 3.609904 -3.375065 -6.215992 -4.442519 -3.794293 18.888211 -7.241690 -4.218820 -2.189840 -23.577652 -1.411211 0.021247 -40.194236 5.673652 -7.213915 -28.229657 -22.306516 1.723398 -4.181330 3.056174 0.395300 0.619670 -0.636130 0.362980 15.780688 1.634811 5.793253 41.352391 -9.624192 -8.342554 98.638381 47.353123 37.768717 1.439526 -2.402234 -0.593240 0.431700 0.022270 -0.482570 
1.482500 15.950170 -1.458480 4.243890 23.051147 8.136434 -14.929932 12.484717 2.462678 5.060195 -2.608643 -17.845163 -7.339347 6.912244 20.597168 -1.081934 5.144079 3.071776 0.646580 -0.063600 0.534320 18.668241 -10.590031 3.454001 -0.915099 7.029297 -33.578920 5.336951 -6.669499 31.625827 -0.095990 -4.525893 3.085831 0.361740 0.536160 0.203170 -4.882779 -0.155728 -6.980963 21.144309 -4.909681 5.552241 -13.492419 -2.123452 9.828712 3.553588 -3.107977 -6.975133 -4.426541 -3.960548 20.278722 -7.540650 -3.933700 -4.613030 -22.878176 -2.644452 1.083860 -37.766064 7.908342 -8.241019 -35.154098 -26.437835 3.772115 -4.016126 3.117889 0.491390 0.504890 -0.512250 0.333450 15.226081 2.668907 6.242275 39.238595 -9.567224 -8.056894 109.267136 49.000393 47.203922 1.515146 -2.346343 -0.542460 0.397480 -0.024810 -0.511030 
1.537840 15.840180 -1.458210 5.094230 24.950743 7.032464 -14.951852 12.585987 2.530206 4.520572 -2.773542 -17.648425 -7.311039 7.446174 23.367081 -0.990894 5.423471 2.909698 0.677830 -0.051000 0.606970 18.626103 -10.536287 3.491387 -1.578342 6.887874 -34.395601 5.223258 -6.579073 31.069554 -0.137306 -4.288976 3.135942 0.310490 0.388580 0.200850 -4.871496 -0.422075 -7.157440 20.888615 -5.827314 8.015199 -13.088774 -2.728889 10.145743 3.426549 -2.857404 -7.793363 -4.548055 -3.890044 22.131673 -7.539820 -3.719190 -7.463110 -22.212857 -3.869926 2.194045 -35.222022 10.439422 -9.163228 -43.205230 -30.151469 6.394505 -3.848699 3.172353 0.618160 0.375870 -0.391610 0.297930 14.817032 3.783115 6.653059 37.098167 -9.539901 -8.295497 119.175047 50.881203 58.226505 1.590135 -2.227148 -0.502720 0.356900 -0.051810 -0.548220 
1.585340 15.722000 -1.464080 6.058182 26.603061 5.771900 -14.980114 12.624378 2.680014 4.220674 -3.272836 -18.286183 -7.598743 8.553312 28.167147 -0.820210 6.103137 2.615511 0.691800 -0.029620 0.649710 18.582333 -10.477590 3.496570 -2.581598 6.718280 -35.050169 5.029934 -6.720931 31.839524 -0.193101 -4.301650 3.107774 0.280400 0.285080 0.178850 -4.843076 -0.641615 -7.379977 20.400289 -6.635948 11.204628 -12.394062 -3.285070 9.781297 3.244333 -2.887953 -8.266774 -4.986596 -3.692695 23.642770 -7.658890 -3.693760 -9.668490 -22.165864 -4.372104 2.994918 -31.614835 13.424930 -9.562149 -52.950579 -34.111046 10.355709 -3.720261 3.228767 0.692220 0.279770 -0.305970 0.273400 15.120573 4.501487 6.655138 33.864113 -9.261246 -8.146291 129.724783 51.508153 70.914956 1.631321 -2.130218 -0.476030 0.344570 -0.076300 -0.562460 
1.620720 15.606290 -1.473360 6.928323 27.686459 4.387926 -15.023763 12.528808 2.953305 4.763549 -4.229561 -20.017676 -8.733928 10.518130 34.598224 -0.574090 7.335574 2.127404 0.723770 0.009270 0.693150 18.549579 -10.314918 3.479315 -3.772328 6.767638 -35.620715 5.158196 -7.311407 34.266735 -0.300268 -4.659907 2.965416 0.277740 0.208880 0.169320 -4.761346 -0.869732 -7.667929 19.765998 -7.330171 14.935683 -11.487496 -3.668699 9.033359 3.046678 -3.230950 -8.397232 -5.850257 -3.313918 24.819144 -8.061620 -3.811160 -11.723920 -22.870273 -4.524247 3.423186 -27.938795 16.215792 -9.565146 -61.172561 -37.051862 14.195869 -3.636076 3.270685 0.751010 0.214720 -0.240920 0.258070 16.229649 5.110727 6.368582 29.888700 -9.074127 -8.048566 139.344724 51.297866 83.554720 1.614458 -2.073347 -0.455200 0.344280 -0.095530 -0.577150 
1.660950 15.503440 -1.490750 7.096559 28.164841 2.519923 -15.052025 12.246027 3.333349 6.643547 -5.289782 -22.317961 -11.254106 13.609135 41.189262 -0.191077 8.975568 1.522122 0.757960 0.060230 0.738080 18.559758 -10.081827 3.455066 -4.719228 7.176143 -35.932766 5.512317 -8.275149 37.939459 -0.462285 -5.290333 2.738514 0.275710 0.132700 0.161050 -4.716388 -0.918143 -8.019241 20.402052 -8.152823 19.199691 -11.371422 -3.736928 7.692178 3.128880 -3.591237 -8.440529 -6.641147 -2.764774 25.861183 -8.660080 -3.674290 -13.294610 -24.204684 -4.678716 3.673412 -24.487191 18.672243 -9.358040 -67.411499 -39.382196 17.674303 -3.552219 3.319446 0.781520 0.158000 -0.178620 0.247580 17.342774 5.757629 6.137866 26.083612 -9.147535 -8.190092 146.890791 50.887864 94.544477 1.608781 -2.051221 -0.419270 0.331160 -0.128540 -0.581560 
1.708770 15.425700 -1.496170 7.317933 28.427499 0.555932 -15.089023 11.884515 3.828098 9.117544 -6.277892 -24.933237 -14.585928 17.651651 47.456057 0.320791 10.812937 0.898371 0.779440 0.103950 0.748610 18.574787 -9.818470 3.343756 -5.955942 7.444521 -35.506578 6.094632 -9.481735 41.586117 -0.633818 -6.026367 2.475729 0.261930 0.070300 0.168750 -4.641681 -0.964681 -8.365592 21.242220 -9.061941 23.447610 -11.465028 -3.664424 5.887641 3.219081 -4.220586 -8.522202 -7.911811 -1.882410 26.917917 -8.885240 -3.605170 -13.531780 -26.079414 -5.018457 4.019222 -22.036393 21.190915 -9.273091 -71.327166 -41.145377 20.208831 -3.467634 3.414674 0.768310 0.113860 -0.134190 0.245080 18.943979 6.880177 5.948576 21.846153 -9.211011 -8.352525 151.488959 50.306841 101.546196 1.632848 -2.082171 -0.357410 0.281390 -0.159220 -0.560450 
1.754880 15.364350 -1.488940 7.399872 28.250880 -1.343667 -15.138236 11.467876 4.410387 12.546622 -6.781970 -27.838437 -18.893833 22.598913 52.334020 0.832064 12.632377 0.342450 0.767520 0.096920 0.757200 18.586487 -9.515675 3.200813 -7.316317 7.753896 -34.575541 7.266093 -10.857800 44.287365 -0.787434 -6.671435 2.261966 0.231270 0.024180 0.159020 -4.517196 -1.011470 -8.709100 22.081891 -9.722818 27.520847 -11.491863 -3.112986 4.014925 3.436845 -4.771123 -8.726632 -9.100518 -1.556626 28.057154 -9.670000 -3.780830 -13.810360 -27.494859 -5.058618 4.200261 -21.017117 23.463220 -9.433065 -73.425761 -42.499892 21.849787 -3.399939 3.432190 0.782990 0.074280 -0.100190 0.232090 19.814568 7.837292 6.034543 19.882812 -9.733726 -9.044944 154.371446 50.238976 106.285638 1.658013 -2.060451 -0.336840 0.264750 -0.170230 -0.557600 
1.792000 15.328310 -1.470920 7.524887 27.896690 -3.127198 -15.203119 11.168144 4.943815 15.810638 -6.825137 -30.615687 -22.073933 26.788879 55.862746 1.221594 13.960763 -0.036439 0.743100 0.057030 0.756490 18.569254 -9.248655 3.051032 -8.959070 7.926233 -33.022725 9.080945 -12.414165 46.024565 -0.918148 -7.245133 2.075810 0.184030 -0.011850 0.156640 -4.335274 -1.186213 -8.995624 22.256535 -10.189486 31.422275 -11.181535 -2.433717 1.839810 3.639811 -5.224278 -8.923327 -10.233304 -1.270812 29.486509 -9.968000 -4.116040 -13.751860 -28.803855 -5.092275 4.315953 -21.082208 25.283810 -9.679696 -72.748522 -42.538530 21.439851 -3.344085 3.437726 0.802190 0.038860 -0.083950 0.209010 20.632895 8.849014 6.070669 19.045399 -10.172658 -10.227310 154.313255 51.771878 108.149972 1.684723 -1.995958 -0.320220 0.237280 -0.162030 -0.561560 
1.804140 15.315500 -1.462150 7.781615 27.379422 -4.293609 -15.293113 10.976448 5.421484 18.882940 -6.473678 -33.606920 -24.182080 29.691811 57.818171 1.461918 14.751245 -0.249268 0.709010 0.003730 0.743020 18.526884 -8.968330 2.931996 -10.630244 8.089872 -31.654825 10.829839 -13.774729 47.032986 -1.022572 -7.687600 1.920940 0.129870 -0.021490 0.176530 -4.078018 -1.542877 -9.235063 21.471627 -10.250606 34.752765 -10.039936 -1.747613 -0.371260 3.778865 -5.658019 -8.993348 -11.341479 -0.553054 30.998829 -9.888190 -4.179560 -13.590570 -29.844835 -4.970435 4.370494 -23.002719 26.326822 -10.258144 -68.698077 -42.325764 19.585800 -3.320324 3.427917 0.816790 0.016440 -0.069790 0.189250 21.388593 9.797968 5.767558 18.806836 -9.394331 -11.441494 151.798134 54.520088 107.962944 1.717182 -1.893737 -0.301330 0.210160 -0.140920 -0.554360 
